<svg width="48" height="48" viewBox="0 0 48 48" fill="none" xmlns="http://www.w3.org/2000/svg">
<path d="M36.0072 3.0957L44.3203 11.7614V44.7151H13.2656V44.8227H44.4264V11.8705L36.0072 3.0957Z" fill="#909090"/>
<path d="M35.9047 2.98828H13.1602V44.7153H44.3209V11.7631L35.9047 2.98828Z" fill="white"/>
<path d="M12.9301 5.22949H3.38281V15.4297H33.4141V5.22949H12.9301Z" fill="#7A7B7C"/>
<path d="M33.575 15.2565H3.57812V5.04883H33.575V15.2565Z" fill="#DD2025"/>
<path d="M13.527 6.77454H11.5742V13.9462H13.1101V11.5273L13.4493 11.5467C13.779 11.5421 14.1056 11.4831 14.416 11.3719C14.6888 11.2792 14.9396 11.1312 15.1526 10.9371C15.3709 10.754 15.5425 10.5214 15.6531 10.2588C15.8044 9.82356 15.8579 9.36038 15.81 8.90213C15.8015 8.57471 15.744 8.25039 15.6396 7.93994C15.5456 7.71554 15.4057 7.51325 15.2289 7.34602C15.0522 7.17879 14.8425 7.0503 14.6132 6.96878C14.4156 6.89558 14.2107 6.84349 14.0021 6.81339C13.8445 6.78773 13.6852 6.77474 13.5255 6.77454M13.2431 10.202H13.1101V7.99074H13.3985C13.5258 7.98156 13.6535 8.00109 13.7722 8.0479C13.8909 8.09471 13.9975 8.16759 14.0843 8.26117C14.2641 8.50174 14.3601 8.79456 14.3577 9.09487C14.3577 9.46242 14.3577 9.7956 14.026 10.0302C13.7871 10.1618 13.5151 10.2224 13.2431 10.202ZM18.7279 6.75512C18.5621 6.75512 18.4007 6.76707 18.2872 6.77156L17.9316 6.78052H16.7662V13.9522H18.1378C18.6619 13.9656 19.1836 13.8768 19.6737 13.6907C20.0683 13.5349 20.4176 13.2826 20.6897 12.9571C20.9563 12.6301 21.1467 12.2478 21.247 11.838C21.3648 11.3747 21.4221 10.8981 21.4173 10.4201C21.4465 9.85559 21.4029 9.28964 21.2873 8.73629C21.1767 8.32943 20.972 7.95428 20.6897 7.64112C20.4682 7.38788 20.1959 7.18423 19.8903 7.04348C19.6286 6.92216 19.3532 6.83286 19.0701 6.77753C18.9575 6.75908 18.8435 6.75058 18.7294 6.75213M18.4575 12.6344H18.3081V8.05648H18.3275C18.6355 8.02086 18.9472 8.07645 19.224 8.21634C19.4267 8.37819 19.5918 8.5821 19.7081 8.81398C19.8335 9.05802 19.9058 9.32586 19.9202 9.59987C19.9337 9.92857 19.9202 10.1975 19.9202 10.4201C19.9257 10.6766 19.9092 10.933 19.8709 11.1866C19.8239 11.4467 19.7388 11.6984 19.6184 11.9336C19.4824 12.153 19.2966 12.3373 19.0761 12.4715C18.8919 12.5911 18.6735 12.6467 18.4545 12.6299M26.0445 6.78052H22.4139V13.9522H23.9498V11.1074H25.8921V9.77468H23.9498V8.11325H26.0415V6.78052" fill="#464648"/>
<path d="M32.5425 30.2629C32.5425 30.2629 37.3056 29.3993 37.3056 31.0263C37.3056 32.6534 34.3548 31.9915 32.5425 30.2629ZM29.0209 30.3869C28.264 30.5536 27.5264 30.7985 26.8201 31.1175L27.4177 29.7728C28.0154 28.4281 28.6354 26.5949 28.6354 26.5949C29.3468 27.7963 30.1766 28.9235 31.1126 29.9596C30.408 30.0645 29.7097 30.2082 29.0209 30.3899V30.3869ZM27.1353 20.6753C27.1353 19.2574 27.594 18.8704 27.9511 18.8704C28.3082 18.8704 28.7101 19.0422 28.7236 20.2734C28.607 21.5113 28.3478 22.7316 27.9511 23.91C27.4058 22.9213 27.1243 21.8088 27.1338 20.6798L27.1353 20.6753ZM20.1893 36.3871C18.7281 35.5131 23.2537 32.8222 24.0739 32.7356C24.0695 32.7371 21.7193 37.3015 20.1893 36.3871ZM38.6966 31.2191C38.6817 31.0697 38.5472 29.4157 35.6039 29.4859C34.377 29.4644 33.1506 29.5509 31.9388 29.7444C30.7643 28.5622 29.7533 27.2281 28.9327 25.7776C29.4494 24.2825 29.7625 22.7246 29.8636 21.1459C29.8202 19.353 29.3914 18.3251 28.0169 18.34C26.6423 18.3549 26.4421 19.5577 26.6229 21.3476C26.7998 22.5505 27.1338 23.7249 27.6164 24.8408C27.6164 24.8408 26.9814 26.8175 26.1418 28.7837C25.3021 30.7499 24.7284 31.7809 24.7284 31.7809C23.268 32.2557 21.8934 32.9619 20.657 33.8726C19.4258 35.0186 18.9253 35.8986 19.5737 36.7786C20.1325 37.5376 22.0883 37.7094 23.8364 35.419C24.7636 34.2348 25.6121 32.991 26.3763 31.6957C26.3763 31.6957 29.0418 30.9651 29.871 30.7649C30.7002 30.5647 31.7028 30.4063 31.7028 30.4063C31.7028 30.4063 34.1367 32.8551 36.4839 32.7685C38.8311 32.6818 38.7175 31.3655 38.7026 31.2221" fill="#DD2025"/>
<path d="M35.7891 3.10352V11.8783H44.2053L35.7891 3.10352Z" fill="#909090"/>
<path d="M35.9023 2.98828V11.7631H44.3186L35.9023 2.98828Z" fill="white"/>
<path d="M13.4098 6.65931H11.457V13.831H12.9989V11.4135L13.3396 11.4329C13.6693 11.4284 13.9959 11.3693 14.3063 11.2581C14.5791 11.1655 14.8299 11.0175 15.0429 10.8233C15.2596 10.6397 15.4296 10.4072 15.5389 10.145C15.6902 9.70982 15.7437 9.24664 15.6958 8.78839C15.6873 8.46097 15.6298 8.13665 15.5254 7.8262C15.4314 7.6018 15.2915 7.39951 15.1147 7.23228C14.938 7.06505 14.7283 6.93656 14.499 6.85504C14.3005 6.78112 14.0946 6.72853 13.8849 6.69816C13.7274 6.6725 13.568 6.65951 13.4083 6.65931M13.1259 10.0868H12.993V7.8755H13.2828C13.4101 7.86632 13.5378 7.88586 13.6565 7.93267C13.7752 7.97948 13.8819 8.05236 13.9686 8.14593C14.1484 8.3865 14.2444 8.67933 14.242 8.97964C14.242 9.34718 14.242 9.68037 13.9103 9.91494C13.6714 10.0465 13.3994 10.1057 13.1274 10.0853M18.6107 6.63989C18.4449 6.63989 18.2835 6.65184 18.17 6.65632L17.8189 6.66529H16.6535V13.8369H18.0251C18.5492 13.8504 19.0709 13.7616 19.561 13.5755C19.9556 13.4196 20.3049 13.1674 20.577 12.8419C20.8436 12.5149 21.034 12.1326 21.1343 11.7228C21.2521 11.2595 21.3094 10.7829 21.3046 10.3049C21.3338 9.74036 21.2901 9.17441 21.1746 8.62105C21.064 8.2142 20.8593 7.83905 20.577 7.52588C20.3555 7.27265 20.0832 7.069 19.7776 6.92825C19.5159 6.80693 19.2405 6.71763 18.9574 6.6623C18.8448 6.64384 18.7308 6.63534 18.6167 6.6369M18.3448 12.5191H18.1954V7.94124H18.2148C18.5228 7.90562 18.8345 7.96121 19.1113 8.10111C19.314 8.26296 19.4791 8.46686 19.5953 8.69875C19.7208 8.94278 19.7931 9.21063 19.8075 9.48464C19.821 9.81334 19.8075 10.0823 19.8075 10.3049C19.813 10.5613 19.7965 10.8178 19.7582 11.0714C19.7112 11.3314 19.6261 11.5832 19.5057 11.8184C19.3697 12.0378 19.1839 12.2221 18.9633 12.3563C18.7791 12.4758 18.5608 12.5315 18.3418 12.5147M25.9273 6.66529H22.2967V13.8369H23.8326V10.9922H25.7749V9.65945H23.8326V7.99802H25.9243V6.66529" fill="white"/>
</svg>
